<svg width="66" height="66" viewBox="0 0 66 66" fill="none" xmlns="http://www.w3.org/2000/svg">
<path d="M41.8759 35.5285C42.2523 35.5282 42.2523 35.5282 42.6363 35.528C43.4599 35.5287 44.2832 35.5365 45.1067 35.5444C45.6801 35.5462 42.3368 35.5477 42.9101 35.5487C44.4147 35.5525 45.9191 35.5623 47.4237 35.5735C49.2312 35.5856 51.0388 35.5901 52.8464 35.596C55.5885 35.6057 58.1936 35.5873 60.9357 35.6047C60.9357 39.3573 60.9357 43.1623 60.9357 47.0286C60.0213 47.0335 59.2435 47.0236 58.3014 47.0286C55.2733 47.0455 52.2453 47.0678 49.2173 47.0927C47.3822 47.1076 45.5472 47.1208 43.712 47.1297C41.9396 47.1385 44.0838 47.152 42.3115 47.1688C41.6367 47.1743 40.962 47.1782 40.2872 47.1803C39.3389 47.1835 38.3909 47.1929 37.4427 47.2037C37.1664 47.2032 36.89 47.2027 36.6053 47.2022C34.4356 47.2369 32.5499 47.6669 30.7162 48.739C30.3641 48.9449 30.0477 49.2076 29.7826 49.5176C29.0623 50.3598 28.5732 51.1952 28.0314 52.2293C26.6761 54.8034 25.3269 56.6409 22.7621 57.7372C22.222 57.968 21.6363 58.0588 21.0489 58.0647C19.2899 58.0826 15.8763 58.0885 15.072 58.0836C14.7845 58.0831 14.497 58.0826 14.2008 58.0821C13.2826 58.0803 12.3644 58.0761 11.4463 58.0718C10.8237 58.0701 10.2012 58.0686 9.57863 58.0672C8.05256 58.0638 6.52656 58.0573 5.00049 58.0509C5.00049 54.2983 5.00049 50.5457 5.00049 46.6794C6.96625 46.6723 6.96625 46.6723 8.97173 46.665C10.2487 46.6548 11.5257 46.6417 12.8027 46.6284C13.6864 46.6206 14.5701 46.6158 15.4538 46.614C16.7283 46.6109 21.9189 46.5971 23.1932 46.5814C23.7806 46.5834 23.7806 46.5834 24.3799 46.5854C27.1485 46.5368 29.4488 46.0138 31.5602 44.1216C32.5532 43.0794 33.143 41.9616 33.7406 40.6592C35.3032 37.3512 38.2336 35.4721 41.8759 35.5285Z" fill="#F4DEA9"/>
<path d="M52.3618 8.04018C52.5759 8.04119 52.7901 8.0422 53.0108 8.04325C53.7997 8.04844 54.5885 8.06245 55.3774 8.07546C57.1465 8.09615 59.1127 8.05414 60.9355 8.07546C60.9355 11.8281 60.9355 15.6695 60.9355 19.5358C59.7377 19.5444 58.3428 19.5269 57.1087 19.5358C55.9433 19.5487 54.778 19.5638 53.6126 19.5791C52.8052 19.5885 51.9979 19.5956 51.1905 19.6003C50.0271 19.6075 48.8641 19.6231 47.7009 19.6403C47.163 19.6409 47.163 19.6409 46.6143 19.6416C44.0864 19.6905 42.319 20.1143 40.3333 21.7803C39.3185 22.9842 38.5515 24.1137 37.8966 25.5508C36.8452 27.7816 35.4351 29.0665 33.197 30.0697C30.6638 30.8906 27.9384 30.6695 25.3062 30.6447C24.7194 30.6428 24.1325 30.6414 23.5456 30.6404C22.0098 30.6366 20.4741 30.6267 18.9383 30.6156C17.0909 30.6035 15.2435 30.5989 13.3961 30.5931C10.5974 30.5834 7.79893 30.5641 5.00024 30.5467C5.00024 26.7941 5.00024 23.0415 5.00024 19.1752C5.97011 19.1756 6.93998 19.176 7.93924 19.1764C11.1551 19.1761 14.3709 19.1649 17.5868 19.1484C19.5352 19.1387 21.4836 19.1326 23.4321 19.135C25.3149 19.1372 27.1975 19.1297 29.0803 19.1155C29.7962 19.1118 30.5121 19.1115 31.2279 19.1149C36.1846 19.208 36.7342 19.2183 40.2472 17.5426C41.2157 17.0807 42.1046 16.4353 42.699 15.5419C43.3476 14.5669 43.8528 13.5334 44.3632 12.4234C45.3544 10.3631 46.9925 9.22585 49.0651 8.35265C50.1517 7.9991 51.2334 8.01454 52.3618 8.04018Z" fill="#F4DEA9"/>
</svg>
